<svg xmlns="http://www.w3.org/2000/svg" viewBox="0 0 70.42 64.37"><defs><style>.cls-1{fill:#57caec;}.cls-2{fill:none;stroke:#57caec;stroke-linecap:round;stroke-linejoin:round;stroke-width:2px;}</style></defs><title>Asset 6</title><g id="Layer_2" data-name="Layer 2"><g id="Layer_1-2" data-name="Layer 1"><path class="cls-1" d="M69.42,45.19H24.2a1,1,0,0,1,0-2H68.42V2H8.83a1,1,0,0,1,0-2H69.42a1,1,0,0,1,1,1V44.19A1,1,0,0,1,69.42,45.19Z"/><path class="cls-1" d="M8.83,23.26a1,1,0,0,1-1-1V1.07a1,1,0,0,1,2,0V22.26A1,1,0,0,1,8.83,23.26Z"/><path class="cls-2" d="M9.31,7.2"/><circle class="cls-1" cx="12.27" cy="60.08" r="1.79"/><path class="cls-1" d="M27.32,24.54V23.2l1.22-1.11c2.07-1.85,3.07-2.91,3.1-4,0-.77-.47-1.38-1.56-1.38a3.43,3.43,0,0,0-2,.79l-.63-1.59a5.24,5.24,0,0,1,3.1-1c2.14,0,3.32,1.25,3.32,3S32.71,20.74,31.34,22l-.87.73v0H34v1.82Z"/><path class="cls-1" d="M39.32,24.54V22.28h-4.2V20.84l3.58-5.77h2.71v5.55h1.14v1.66H41.42v2.26Zm0-3.92v-2.1c0-.57,0-1.15.07-1.76h-.06c-.31.61-.55,1.17-.87,1.76l-1.27,2.07v0Z"/><path class="cls-1" d="M43.11,25.12l3.12-10.56H47.7L44.58,25.12Z"/><path class="cls-1" d="M55.1,15.07v1.4l-3.9,8.07H48.85l3.9-7.62v0H48.41V15.07Z"/><path class="cls-1" d="M24,56.37H1a1,1,0,0,1,0-2H24a1,1,0,0,1,0,2Z"/><path class="cls-1" d="M46.9,54.67a1,1,0,0,1-1-1V44.61a1,1,0,0,1,2,0v9.07A1,1,0,0,1,46.9,54.67Z"/><path class="cls-1" d="M30.88,54.67a1,1,0,0,1-1-1V44.61a1,1,0,0,1,2,0v9.07A1,1,0,0,1,30.88,54.67Z"/><path class="cls-1" d="M54,54.37H24a1,1,0,0,1,0-2H54a1,1,0,0,1,0,2Z"/><path class="cls-1" d="M24,64.37H1a1,1,0,0,1-1-1v-41a1,1,0,0,1,1-1H24a1,1,0,0,1,1,1v41A1,1,0,0,1,24,64.37Zm-22-2H23v-39H2Z"/><path class="cls-1" d="M69,38.37H24a1,1,0,0,1,0-2H69a1,1,0,0,1,0,2Z"/></g></g></svg>