<svg xmlns="http://www.w3.org/2000/svg" viewBox="0 0 160 160"><defs><style>.cls-1{fill:#f86455;}.cls-2{fill:#d2d2d2;}</style></defs><title>virtuwell_Icons_EXPORT</title><g id="Cold_Cough_Allergy_Ring" data-name="Cold Cough Allergy Ring"><path class="cls-1" d="M115,89a1,1,0,0,0-.07-.34l0,0a1,1,0,0,0-.09-.17L104,73.41a1,1,0,0,0-.8-.41H93L98,56.41a1,1,0,0,0-.15-.91,1,1,0,0,0-.8-.41c-1.7,0-2.72-.84-3.9-1.82A7.63,7.63,0,0,0,88,51a5.91,5.91,0,0,0-4.83,2.37,4,4,0,0,1-3.38,1.72c-1.65,0-2.43-.78-3.41-1.76A6.25,6.25,0,0,0,71.54,51a6.78,6.78,0,0,0-4.94,2.31c-1.08,1-1.94,1.78-3.61,1.78a1,1,0,0,0-.8.41,1,1,0,0,0-.15.91L67,73H56.83a1,1,0,0,0-.8.41l-10.85,15a1,1,0,0,0-.09.17l0,0A1,1,0,0,0,45,89s0,0,0,0v20a1,1,0,0,0,1,1h68a1,1,0,0,0,1-1V89S115,89,115,89ZM67.93,54.83C69,53.83,69.87,53,71.54,53S74,53.82,75,54.8a6.25,6.25,0,0,0,4.8,2.33,5.91,5.91,0,0,0,4.83-2.37A4,4,0,0,1,88,53c1.7,0,2.72.84,3.9,1.82A8.63,8.63,0,0,0,95.7,57L90.95,73l-.28.95L89,79.68a1,1,0,0,0,0,.32H71.06a1,1,0,0,0,0-.32L64.3,57A7.5,7.5,0,0,0,67.93,54.83ZM57.33,75H67.56L69,80H64a1,1,0,0,0,0,2H96a1,1,0,0,0,0-2H91l1.48-5h10.23l9.4,13H47.93ZM113,108H47V90h66Z"/><path class="cls-2" d="M80,2A78,78,0,1,1,2,80,78.09,78.09,0,0,1,80,2m0-2a80,80,0,1,0,80,80A80.09,80.09,0,0,0,80,0Z"/></g></svg>