<svg xmlns="http://www.w3.org/2000/svg" viewBox="0 0 160 160"><defs><style>.cls-1{fill:#5467f6;}.cls-2{fill:#d2d2d2;}</style></defs><title>virtuwell_Icons_EXPORT</title><g id="Womens_Health_Ring" data-name="Womens Health Ring"><path class="cls-1" d="M74.34,78.59l3.36-3.36,1.75-1.75,3.38-3.38h0l.71-.71A14.87,14.87,0,0,1,92,65.17a12,12,0,0,0-.27-2A16.86,16.86,0,0,0,82.12,68L80,70.1h0l-1.41,1.41h0l-2,2-2.33,2.33h0l-1.38,1.38Z"/><path class="cls-1" d="M86.36,82.12l-.71-.71-3.86,3.86L80,87.07h0L77.17,89.9h0l-.71.71A14.87,14.87,0,0,1,68,94.83a12,12,0,0,0,.27,2A16.86,16.86,0,0,0,77.88,92L80,89.9h0l1.41-1.41h0l1.79-1.79,3.86-3.86Z"/><path class="cls-1" d="M71.51,81.41h0l3.54,3.54,2.12,2.12,1.41-1.41-2.12-2.12-2.12-2.12h0L70.1,77.17h0l-.71-.71A14.87,14.87,0,0,1,65.17,68a12,12,0,0,0-2,.27A16.86,16.86,0,0,0,68,77.88L70.1,80h0Z"/><path class="cls-1" d="M66.18,60A15,15,0,1,1,90.61,76.46l-.71.71.71.71.71.71.71-.71A17,17,0,1,0,64,60.09c.61-.05,1.22-.09,1.84-.09Z"/><path class="cls-1" d="M60,93.82A15,15,0,1,1,76.46,69.39l.71.71.71-.71.71-.71L77.88,68A17,17,0,1,0,60.09,96C60,95.37,60,94.76,60,94.14,60,94,60,93.93,60,93.82Z"/><path class="cls-1" d="M93.82,100A15,15,0,1,1,69.39,83.54l.71-.71-1.41-1.41-.71.71A17,17,0,1,0,96,99.91c-.61.05-1.22.09-1.84.09Z"/><path class="cls-1" d="M90.61,83.54A14.87,14.87,0,0,1,94.83,92a12,12,0,0,0,2-.27A16.86,16.86,0,0,0,92,82.12L89.9,80h0l-.71-.71-.71-.71h0l-2.17-2.17-2.1-2.1h0l-1.38-1.38-1.41,1.41,3.13,3.13,1.12,1.12h0l4.24,4.24h0Z"/><path class="cls-1" d="M106.16,68a16.92,16.92,0,0,0-6.25-4c.05.61.09,1.22.09,1.84,0,.11,0,.21,0,.32A15,15,0,1,1,83.54,90.61l-.71-.71-1.41,1.41.71.71a17,17,0,1,0,24-24Z"/><path class="cls-2" d="M80,2A78,78,0,1,1,2,80,78.09,78.09,0,0,1,80,2m0-2a80,80,0,1,0,80,80A80.09,80.09,0,0,0,80,0Z"/></g></svg>