<svg xmlns="http://www.w3.org/2000/svg" viewBox="0 0 160 160"><defs><style>.cls-1{fill:#14c8be;}.cls-2{fill:#d2d2d2;}</style></defs><title>virtuwell_Icons_EXPORT</title><g id="Sexual_Health_Ring" data-name="Sexual Health Ring"><path class="cls-1" d="M109.5,59a1,1,0,0,0,1-1V50a1,1,0,0,0-1-1h-8a1,1,0,0,0,0,2h5.59l-8.84,8.84a11.94,11.94,0,0,0-6.74-2.79V52a3,3,0,0,0-3-3h-18a3,3,0,0,0-3,3V68h-16a3,3,0,0,0-3,3V89a3,3,0,0,0,3,3h6a1,1,0,0,0,1-1,10,10,0,1,1,2.93,7.07,1,1,0,0,0-1.41,0l-6.51,6.51-3.29-3.29a1,1,0,1,0-1.41,1.41L52.09,106l-3.29,3.29a1,1,0,1,0,1.41,1.41l3.29-3.29,3.29,3.29a1,1,0,0,0,1.41-1.41L54.91,106l5.84-5.84A11.88,11.88,0,0,0,67.5,103v5a3,3,0,0,0,3,3h18a3,3,0,0,0,3-3V92h16a3,3,0,0,0,3-3V71a3,3,0,0,0-3-3h-6a1,1,0,0,0-1,1,10,10,0,1,1-2.93-7.07,1,1,0,0,0,1.41,0l9.51-9.51V58A1,1,0,0,0,109.5,59ZM82,60.51A12,12,0,1,0,102.45,70h5a1,1,0,0,1,1,1V89a1,1,0,0,1-1,1h-18v18a1,1,0,0,1-1,1h-18a1,1,0,0,1-1-1v-5a12,12,0,1,0-13-13h-5a1,1,0,0,1-1-1V71a1,1,0,0,1,1-1h18V52a1,1,0,0,1,1-1h18a1,1,0,0,1,1,1v5.05A11.94,11.94,0,0,0,82,60.51Z"/><path class="cls-2" d="M79.5,2a78,78,0,1,1-78,78,78.09,78.09,0,0,1,78-78m0-2a80,80,0,1,0,80,80,80.09,80.09,0,0,0-80-80Z"/></g></svg>