<svg xmlns="http://www.w3.org/2000/svg" viewBox="0 0 160 160"><defs><style>.cls-1{fill:#d2d2d2;}.cls-2{fill:#954fba;}</style></defs><title>virtuwell_Icons_EXPORT</title><g id="Eye_and_Ear_Ring" data-name="Eye and Ear Ring"><path class="cls-1" d="M80,2A78,78,0,1,1,2,80,78.09,78.09,0,0,1,80,2m0-2a80,80,0,1,0,80,80A80.09,80.09,0,0,0,80,0Z"/><path class="cls-2" d="M80,50a1,1,0,0,0-1,1v58a1,1,0,0,0,2,0V51A1,1,0,0,0,80,50Zm41.61,11.39A15,15,0,0,0,96,72a1,1,0,0,0,2,0,13,13,0,1,1,22.19,9.19l-.1.11L106.49,99.58A5,5,0,0,1,98,96a1,1,0,1,0-2,0,7,7,0,0,0,11.95,5l.1-.11,13.61-18.29A15,15,0,0,0,121.61,61.39ZM111,66a6,6,0,0,1,6,6,1,1,0,0,0,2,0,8.07,8.07,0,0,0-13.69-5.73,9.15,9.15,0,0,0,0,13.43l3.35,3.35-4.42,5.3a1,1,0,1,0,1.54,1.28l5-6a1,1,0,0,0-.06-1.35l-4-4a7.15,7.15,0,0,1,0-10.57A6.08,6.08,0,0,1,111,66ZM48,78a6,6,0,1,0,6,6A6,6,0,0,0,48,78Zm0,10a4,4,0,1,1,4-4A4,4,0,0,1,48,88ZM28.91,65.1a1,1,0,0,0,1.41,1.41,25,25,0,0,1,35.36,0,1,1,0,0,0,1.41-1.41A27,27,0,0,0,28.91,65.1ZM58.24,76.88l4.17-3.42a1,1,0,1,0-1.27-1.55L56.53,75.7A19.62,19.62,0,0,0,54,74.34l2.36-4.67a1,1,0,0,0-1.79-.9L52.1,73.65a14.42,14.42,0,0,0-3.1-.59V68a1,1,0,0,0-2,0v5.06a14.42,14.42,0,0,0-3.1.59l-2.46-4.88a1,1,0,0,0-1.79.9L42,74.34a19.62,19.62,0,0,0-2.54,1.36l-4.61-3.79a1,1,0,1,0-1.27,1.55l4.17,3.42C34.24,79.58,32,82.88,32,84c0,2,7.16,11,16,11s16-9,16-11C64,82.88,61.76,79.58,58.24,76.88ZM48,93c-7.32,0-13.27-7.22-14-9,.7-1.78,6.64-9,14-9s13.27,7.22,14,9C61.27,85.78,55.32,93,48,93Z"/></g></svg>