<svg xmlns="http://www.w3.org/2000/svg" viewBox="0 0 160 160"><defs><style>.cls-1{fill:#eb2b63;}.cls-2{fill:#d2d2d2;}</style></defs><title>virtuwell_Icons_EXPORT</title><g id="Flu_Ring" data-name="Flu Ring"><path class="cls-1" d="M100.5,56.45a1,1,0,0,0-1.41,0L79.58,76a1,1,0,0,0,0,1.41l5.07,5.07a1,1,0,0,0,1.41,0l19.5-19.5a1,1,0,0,0,0-1.41ZM85.36,80.31,81.7,76.66,99.79,58.57l3.65,3.65Zm-8.6,3.19a1.5,1.5,0,1,0,1.5,1.5A1.5,1.5,0,0,0,76.76,83.5Zm32-28.94-1.41-1.41a9,9,0,0,0-12.73,0l-19.8,19.8a1,1,0,0,0-.16.21L65.52,89.31,52.71,102.12a3.75,3.75,0,0,0,0,5.3l1.77,1.77a3.74,3.74,0,0,0,5.3,0L72.59,96.38l16.15-9.13a1,1,0,0,0,.21-.16l19.8-19.8A9,9,0,0,0,108.75,54.56ZM58.37,107.78a1.79,1.79,0,0,1-2.47,0L54.12,106a1.75,1.75,0,0,1,0-2.47l2.3-2.3,4.24,4.24Zm29.27-22.2L71.49,94.7a1,1,0,0,0-.21.16l-9.19,9.19-4.24-4.24L67,90.63a1,1,0,0,0,.16-.21l9.13-16.15L96,54.56a7,7,0,0,1,9.9,0L107.34,56a7,7,0,0,1,0,9.9ZM79.76,109a1,1,0,0,0,2,0v-5h-2Zm2-58a1,1,0,0,0-2,0v5h2Zm-25,30V79h-5a1,1,0,0,0,0,2Zm53-2h-5v2h5a1,1,0,0,0,0-2ZM98.44,96.26,97,97.68l3.54,3.54A1,1,0,0,0,102,99.8ZM63.08,63.74l1.41-1.41L61,58.79a1,1,0,0,0-1.41,1.41Z"/><path class="cls-2" d="M80.76,2a78,78,0,1,1-78,78,78.09,78.09,0,0,1,78-78m0-2a80,80,0,1,0,80,80,80.09,80.09,0,0,0-80-80Z"/></g></svg>