<svg xmlns="http://www.w3.org/2000/svg" viewBox="0 0 160 160"><defs><style>.cls-1{fill:#ffc33e;}.cls-2{fill:#d2d2d2;}</style></defs><title>virtuwell_Icons_EXPORT</title><g id="Skin_and_Rash_Ring" data-name="Skin and Rash Ring"><path class="cls-1" d="M72.14,90.52a8,8,0,0,0,6.25,6.32A8.41,8.41,0,0,0,80,97a8,8,0,0,0,4.55-14.57l-.42-3.33L81,49.77a1,1,0,0,0-1.94,0L75.45,82.43A8,8,0,0,0,72.14,90.52Zm4.45-6.45a2,2,0,0,0,.85-1.42L80,59.33l2.16,20,.42,3.33a2,2,0,0,0,.84,1.4,6.1,6.1,0,0,1,1.71,1.81A6,6,0,0,1,80,95a6.43,6.43,0,0,1-1.22-.12,6,6,0,0,1-2.19-10.81ZM54,89.5A1.5,1.5,0,1,0,55.5,91,1.5,1.5,0,0,0,54,89.5Zm-6,8A1.5,1.5,0,1,0,49.5,99,1.5,1.5,0,0,0,48,97.5Zm12,0A1.5,1.5,0,1,0,61.5,99,1.5,1.5,0,0,0,60,97.5Zm-.7-15.1C58.11,80.81,56.75,79,54,79s-4.11,1.81-5.3,3.4S46.66,85,45,85s-2.49-1-3.7-2.6S38.75,79,36,79s-4.1,1.81-5.3,3.4l1.6,1.2C33.51,82,34.34,81,36,81s2.49,1,3.7,2.6S42.25,87,45,87s4.11-1.81,5.3-3.4,2-2.6,3.7-2.6,2.49,1,3.7,2.6a1,1,0,1,0,1.6-1.2ZM100,97.5a1.5,1.5,0,1,0,1.5,1.5A1.5,1.5,0,0,0,100,97.5Zm29.3-15.1c-1.19-1.59-2.55-3.4-5.3-3.4s-4.1,1.81-5.3,3.4-2,2.6-3.7,2.6-2.49-1-3.7-2.6S108.75,79,106,79s-4.11,1.81-5.3,3.4a1,1,0,1,0,1.6,1.2c1.21-1.61,2-2.6,3.7-2.6s2.49,1,3.7,2.6S112.25,87,115,87s4.1-1.81,5.3-3.4,2-2.6,3.7-2.6,2.49,1,3.7,2.6a1,1,0,0,0,1.6-1.2ZM89,75a5,5,0,0,1,5-5h26a1,1,0,0,0,0-2H94a7,7,0,0,0-7,7,8,8,0,0,0,2.72,5.53c4.64,4.64,4.4,12.73-.53,17.66a13,13,0,0,1-18.38,0A13.08,13.08,0,0,1,67,89.12a11.87,11.87,0,0,1,3.32-8.59A8,8,0,0,0,73,75a7,7,0,0,0-7-7H40a1,1,0,0,0,0,2H66a5,5,0,0,1,5,5c0,1.37-.66,2.64-2.14,4.12a13.88,13.88,0,0,0-3.91,10,15.06,15.06,0,0,0,4.44,10.45,15,15,0,0,0,21.21,0c5.7-5.7,5.94-15.08.53-20.49C89.66,77.64,89,76.37,89,75Zm23,22.5a1.5,1.5,0,1,0,1.5,1.5A1.5,1.5,0,0,0,112,97.5Zm-6-8a1.5,1.5,0,1,0,1.5,1.5A1.5,1.5,0,0,0,106,89.5Z"/><path class="cls-2" d="M80,2A78,78,0,1,1,2,80,78.09,78.09,0,0,1,80,2m0-2a80,80,0,1,0,80,80A80.09,80.09,0,0,0,80,0Z"/></g></svg>