<svg xmlns="http://www.w3.org/2000/svg" viewBox="0 0 160 160"><defs><style>.cls-1{fill:#75bf43;}.cls-2{fill:#d2d2d2;}</style></defs><title>virtuwell_Icons_EXPORT</title><g id="Chronic_and_Preventative_Ring" data-name="Chronic and Preventative Ring"><path class="cls-1" d="M105.92,77.3A53.13,53.13,0,0,0,111.54,53c0-3.23-1-5.67-2.9-7.25a9.85,9.85,0,0,0-6.47-1.91,2,2,0,1,0,.19,2,7.78,7.78,0,0,1,5,1.46c1.44,1.18,2.17,3.1,2.17,5.7a51.15,51.15,0,0,1-5.37,23.3,12.61,12.61,0,0,0-7.3-1.18c.17-.59.33-1.2.45-1.82,1.52-7.77-1.47-15-6.78-17.38,2.54-3.4,2.33-8.08,2.32-8.3a1,1,0,0,0-.94-.94c-.23,0-5.85-.28-9.25,3.12a9.73,9.73,0,0,0-2.13,3.35,9.73,9.73,0,0,0-2.13-3.35A9.31,9.31,0,0,0,76,48.06a1,1,0,0,0-.89,1.79,7.64,7.64,0,0,1,1.32.85l3,6c0,.2,0,.39.07.56a10.75,10.75,0,0,0-6.25-2.17,9.06,9.06,0,0,0-1.74.17c-6.5,1.27-10.41,9.33-8.72,18,1.54,7.89,7.18,13.58,13.09,13.58a9,9,0,0,0,4.19-1,9,9,0,0,0,4.19,1,9,9,0,0,0,1.37-.12c0,.41-.06.82-.06,1.24a12.93,12.93,0,0,0,2.31,7.38,49.18,49.18,0,0,1-7.31,4.51c-3.51-1.7-29-15.16-29-46.9,0-2.6.73-4.51,2.16-5.69a7.81,7.81,0,0,1,5-1.47,2,2,0,1,0,.18-2,9.86,9.86,0,0,0-6.47,1.91c-1.93,1.58-2.9,4-2.9,7.25,0,32.52,25.76,46.55,30,48.63V110a10,10,0,0,0,20,0v-9.05a13,13,0,0,0,6.38-23.65ZM84.08,51.21c2-2,5.19-2.44,6.77-2.52-.07,1.53-.49,4.56-2.37,6.59a9.08,9.08,0,0,0-1.61-.15,10.33,10.33,0,0,0-5.17,1.47A9.54,9.54,0,0,1,84.08,51.21Zm.15,33.66a7,7,0,0,1-3.28-.8,2,2,0,0,0-1.83,0,7,7,0,0,1-3.28.8c-5,0-9.8-5.14-11.13-12-1.48-7.58,1.72-14.6,7.14-15.66a7.09,7.09,0,0,1,1.35-.13,9,9,0,0,1,5.58,2.16,2,2,0,0,0,2.5,0,9,9,0,0,1,5.58-2.16,7.09,7.09,0,0,1,1.36.13c5.41,1.06,8.61,8.08,7.14,15.66a18.67,18.67,0,0,1-.77,2.7,13,13,0,0,0-8.6,9A7.51,7.51,0,0,1,84.23,84.87ZM97.54,110a8,8,0,0,1-16,0v-8.37a52.1,52.1,0,0,0,7.57-4.7,13,13,0,0,0,8.43,4Zm1-11a11,11,0,1,1,11-11A11,11,0,0,1,98.54,99Zm0-17a6,6,0,1,0,6,6A6,6,0,0,0,98.54,82Zm0,10a4,4,0,1,1,4-4A4,4,0,0,1,98.54,92Z"/><path class="cls-2" d="M80.54,2a78,78,0,1,1-78,78,78.09,78.09,0,0,1,78-78m0-2a80,80,0,1,0,80,80,80.09,80.09,0,0,0-80-80Z"/></g></svg>