<svg xmlns="http://www.w3.org/2000/svg" viewBox="0 0 160 160"><defs><style>.cls-1{fill:#5cc9eb;}.cls-2{fill:#d2d2d2;}</style></defs><title>virtuwell_Icons_EXPORT</title><g id="Kids_Health_Ring" data-name="Kids Health Ring"><path class="cls-1" d="M79,72.26l-6.8,5.66,1.4-5.15a1,1,0,0,0-1-1.26h-7a1,1,0,0,0,0,2h5.69l-5.45,20H57.36l-5.45-20H57.6a1,1,0,0,0,0-2h-7a1,1,0,0,0-1,1.26L51,77.91l-6.8-5.66A1,1,0,0,0,43,73.79l9,7.48h0l3.62,13.28-2,12.79a1,1,0,0,0,.84,1.14h.15a1,1,0,0,0,1-.85L57.45,95.5h8.28l1.87,12.15a1,1,0,0,0,1,.85h.15a1,1,0,0,0,.84-1.14l-2-12.79,3.62-13.28h0l9-7.48A1,1,0,1,0,79,72.26Zm37.28,9.58-12-10.11h0a1,1,0,0,0-.32-.17l-.09,0a1,1,0,0,0-.22,0h-10a1,1,0,0,0-.21,0l-.1,0a1,1,0,0,0-.31.17h0L81,81.84a1,1,0,0,0,1.29,1.53l9.55-8L86.63,94.24a1,1,0,0,0,1,1.26h5.74l-2.72,11.77a1,1,0,0,0,1.95.45l3-13a1,1,0,0,0-1-1.23H88.91l5.45-20h8.47l5.45,20H102.6a1,1,0,0,0-1,1.23l3,13a1,1,0,0,0,1,.77l.23,0a1,1,0,0,0,.75-1.2L103.85,95.5h5.74a1,1,0,0,0,1-1.26l-5.16-18.91,9.55,8a1,1,0,0,0,1.29-1.53ZM87.6,65.67a1,1,0,0,0,.64-.23l2.31-1.93a9,9,0,0,0,16.09,0L109,65.43a1,1,0,1,0,1.28-1.54l-2.87-2.39a9,9,0,1,0-17.53,0L87,63.9a1,1,0,0,0,.64,1.77Zm11-13.17a7,7,0,1,1-7,7A7,7,0,0,1,98.6,52.5Zm-49,8h3.06a9,9,0,1,0,0-2H49.6a1,1,0,0,0,0,2Zm12-8a7,7,0,0,1,6.92,6H54.68A7,7,0,0,1,61.6,52.5Zm6.92,8a7,7,0,0,1-13.84,0Z"/><path class="cls-2" d="M79.6,2a78,78,0,1,1-78,78,78.09,78.09,0,0,1,78-78m0-2a80,80,0,1,0,80,80,80.09,80.09,0,0,0-80-80Z"/></g></svg>